<svg xmlns="http://www.w3.org/2000/svg" viewBox="0 0 900 700" font-family="'Segoe UI', Helvetica, Arial, sans-serif">
  <!-- background -->
  <rect width="900" height="700" fill="#ffffff"/>

  <rect x="0" y="585" width="900" height="40" fill="#f4ead9" opacity="0.45"/>
  <line x1="100" y1="592" x2="800" y2="592" stroke="#b8893a" stroke-width="1.5" opacity="0.45"/>

  <text x="450" y="40" text-anchor="middle" font-size="22" font-weight="600" fill="#1a2845">The Knowledge Tree</text>
  <text x="450" y="62" text-anchor="middle" font-size="11" fill="#7a6a4a" letter-spacing="2.4">STAGE&#160;2 &#160;·&#160; +&#160;GRAFTS</text>

  <!-- TRUNK -->
  <path d="M 422,592 C 426,500 430,420 432,340 C 432,322 468,322 468,340 C 470,420 474,500 478,592 Z" fill="#1a2845"/>
  <path d="M 449,575 C 450,500 450,420 450,340" stroke="#2c3e6b" stroke-width="2" fill="none" opacity="0.55"/>
  <path d="M 437,565 C 438,490 437,415 438,345" stroke="#2c3e6b" stroke-width="1.2" fill="none" opacity="0.4"/>
  <path d="M 462,565 C 463,490 462,415 463,345" stroke="#2c3e6b" stroke-width="1.2" fill="none" opacity="0.4"/>

  <rect x="343" y="455" width="214" height="60" rx="6" fill="#ffffff" stroke="#1a2845" stroke-width="2"/>
  <text x="450" y="479" text-anchor="middle" font-size="15" font-weight="600" fill="#1a2845">Extended Matrix</text>
  <text x="450" y="500" text-anchor="middle" font-size="10.5" fill="#666" font-style="italic">stratigraphy · chronology · relations</text>

  <!-- BRANCHES -->
  <g stroke="#b8893a" fill="none" stroke-linecap="round">
    <path d="M 432,340 Q 310,300 195,225 Q 165,210 125,195" stroke-width="9"/>
    <path d="M 250,260 Q 220,255 195,275" stroke-width="5"/>
    <path d="M 440,330 Q 380,240 320,160 Q 305,140 285,125" stroke-width="9"/>
    <path d="M 350,205 Q 330,190 320,215" stroke-width="5"/>
    <path d="M 460,330 Q 520,240 580,160 Q 595,140 615,125" stroke-width="9"/>
    <path d="M 550,205 Q 575,190 585,215" stroke-width="5"/>
    <path d="M 468,340 Q 590,300 705,225 Q 735,210 775,195" stroke-width="9"/>
    <path d="M 650,260 Q 680,255 705,275" stroke-width="5"/>
  </g>

  <g font-size="13" font-weight="600" fill="#1a2845">
    <text x="100" y="188" text-anchor="middle">US</text>
    <text x="265" y="118" text-anchor="middle">USVs</text>
    <text x="635" y="118" text-anchor="middle">SF</text>
    <text x="800" y="188" text-anchor="middle">USD</text>
  </g>

  <!-- LEAVES (almond shapes) -->
  <g transform="translate(186,224)">
    <path d="M -28,0 C -26,-5 -16.8,-11 0,-11 C 16.8,-11 26,-5 28,0 C 26,5 16.8,11 0,11 C -16.8,11 -26,5 -28,0 Z" fill="#e8c987" stroke="#b8893a" stroke-width="0.9"/>
    <line x1="-22" y1="0" x2="22" y2="0" stroke="#b8893a" stroke-width="0.5" opacity="0.5"/>
    <text x="0" y="3" text-anchor="middle" font-size="9.5" fill="#1a2845">EMdb US</text>
  </g>
  <g transform="translate(221,274)">
    <path d="M -32,0 C -30,-5 -19.2,-11 0,-11 C 19.2,-11 30,-5 32,0 C 30,5 19.2,11 0,11 C -19.2,11 -30,5 -32,0 Z" fill="#e8c987" stroke="#b8893a" stroke-width="0.9"/>
    <line x1="-26" y1="0" x2="26" y2="0" stroke="#b8893a" stroke-width="0.5" opacity="0.5"/>
    <text x="0" y="3" text-anchor="middle" font-size="9.5" fill="#1a2845">pyArchInit</text>
  </g>
  <g transform="translate(135,225) rotate(-25)">
    <path d="M 0,0 C 3,-2 4,-9 0,-12 C -4,-9 -3,-2 0,0 Z" fill="#e8c987" stroke="#b8893a" stroke-width="0.6"/>
    <line x1="0" y1="-1" x2="0" y2="-10" stroke="#b8893a" stroke-width="0.35" opacity="0.45"/>
  </g>
  <g transform="translate(115,212) rotate(20)">
    <path d="M 0,0 C 2.5,-2 3,-7 0,-9 C -3,-7 -2.5,-2 0,0 Z" fill="#e8c987" stroke="#b8893a" stroke-width="0.55" opacity="0.85"/>
  </g>
  <g transform="translate(258,250) rotate(-40)">
    <path d="M 0,0 C 2.5,-2 3,-7 0,-9 C -3,-7 -2.5,-2 0,0 Z" fill="#e8c987" stroke="#b8893a" stroke-width="0.55" opacity="0.85"/>
  </g>

  <g transform="translate(310,158)">
    <path d="M -32,0 C -30,-5 -19.2,-11 0,-11 C 19.2,-11 30,-5 32,0 C 30,5 19.2,11 0,11 C -19.2,11 -30,5 -32,0 Z" fill="#e8c987" stroke="#b8893a" stroke-width="0.9"/>
    <line x1="-26" y1="0" x2="26" y2="0" stroke="#b8893a" stroke-width="0.5" opacity="0.5"/>
    <text x="0" y="3" text-anchor="middle" font-size="9.5" fill="#1a2845">EMdb USVs</text>
  </g>
  <g transform="translate(280,180) rotate(-15)">
    <path d="M 0,0 C 3,-2 4,-9 0,-12 C -4,-9 -3,-2 0,0 Z" fill="#e8c987" stroke="#b8893a" stroke-width="0.6"/>
    <line x1="0" y1="-1" x2="0" y2="-10" stroke="#b8893a" stroke-width="0.35" opacity="0.45"/>
  </g>
  <g transform="translate(345,200) rotate(20)">
    <path d="M 0,0 C 2.5,-2 3,-7 0,-9 C -3,-7 -2.5,-2 0,0 Z" fill="#e8c987" stroke="#b8893a" stroke-width="0.55" opacity="0.85"/>
  </g>
  <g transform="translate(360,225) rotate(35)">
    <path d="M 0,0 C 2.5,-2 3,-7 0,-9 C -3,-7 -2.5,-2 0,0 Z" fill="#e8c987" stroke="#b8893a" stroke-width="0.55" opacity="0.8"/>
  </g>

  <g transform="translate(619,158)">
    <path d="M -36,0 C -34,-5 -21.6,-11 0,-11 C 21.6,-11 34,-5 36,0 C 34,5 21.6,11 0,11 C -21.6,11 -34,5 -36,0 Z" fill="#e8c987" stroke="#b8893a" stroke-width="0.9"/>
    <line x1="-30" y1="0" x2="30" y2="0" stroke="#b8893a" stroke-width="0.5" opacity="0.5"/>
    <text x="0" y="3" text-anchor="middle" font-size="9.5" fill="#1a2845">EMdb blocks</text>
  </g>
  <g transform="translate(562,234)">
    <path d="M -33,0 C -31,-5 -19.8,-11 0,-11 C 19.8,-11 31,-5 33,0 C 31,5 19.8,11 0,11 C -19.8,11 -31,5 -33,0 Z" fill="#e8c987" stroke="#b8893a" stroke-width="0.9"/>
    <line x1="-27" y1="0" x2="27" y2="0" stroke="#b8893a" stroke-width="0.5" opacity="0.5"/>
    <text x="0" y="3" text-anchor="middle" font-size="9.5" fill="#1a2845">EMdb bones</text>
  </g>
  <g transform="translate(580,180) rotate(15)">
    <path d="M 0,0 C 3,-2 4,-9 0,-12 C -4,-9 -3,-2 0,0 Z" fill="#e8c987" stroke="#b8893a" stroke-width="0.6"/>
    <line x1="0" y1="-1" x2="0" y2="-10" stroke="#b8893a" stroke-width="0.35" opacity="0.45"/>
  </g>
  <g transform="translate(540,205) rotate(-20)">
    <path d="M 0,0 C 2.5,-2 3,-7 0,-9 C -3,-7 -2.5,-2 0,0 Z" fill="#e8c987" stroke="#b8893a" stroke-width="0.55" opacity="0.85"/>
  </g>

  <g transform="translate(728,224)">
    <path d="M -31,0 C -29,-5 -18.6,-11 0,-11 C 18.6,-11 29,-5 31,0 C 29,5 18.6,11 0,11 C -18.6,11 -29,5 -31,0 Z" fill="#e8c987" stroke="#b8893a" stroke-width="0.9"/>
    <line x1="-25" y1="0" x2="25" y2="0" stroke="#b8893a" stroke-width="0.5" opacity="0.5"/>
    <text x="0" y="3" text-anchor="middle" font-size="9.5" fill="#1a2845">SourceList</text>
  </g>
  <g transform="translate(682,271)">
    <path d="M -25,0 C -23,-5 -15,-11 0,-11 C 15,-11 23,-5 25,0 C 23,5 15,11 0,11 C -15,11 -23,5 -25,0 Z" fill="#e8c987" stroke="#b8893a" stroke-width="0.9"/>
    <line x1="-19" y1="0" x2="19" y2="0" stroke="#b8893a" stroke-width="0.5" opacity="0.5"/>
    <text x="0" y="3" text-anchor="middle" font-size="9.5" fill="#1a2845">DosCo</text>
  </g>
  <g transform="translate(753,257)">
    <path d="M -25,0 C -23,-5 -15,-11 0,-11 C 15,-11 23,-5 25,0 C 23,5 15,11 0,11 C -15,11 -23,5 -25,0 Z" fill="#e8c987" stroke="#b8893a" stroke-width="0.9"/>
    <line x1="-19" y1="0" x2="19" y2="0" stroke="#b8893a" stroke-width="0.5" opacity="0.5"/>
    <text x="0" y="3" text-anchor="middle" font-size="9.5" fill="#1a2845">images</text>
  </g>
  <g transform="translate(640,295) rotate(-30)">
    <path d="M 0,0 C 3,-2 4,-9 0,-12 C -4,-9 -3,-2 0,0 Z" fill="#e8c987" stroke="#b8893a" stroke-width="0.6"/>
    <line x1="0" y1="-1" x2="0" y2="-10" stroke="#b8893a" stroke-width="0.35" opacity="0.45"/>
  </g>
  <g transform="translate(782,210) rotate(30)">
    <path d="M 0,0 C 2.5,-2 3,-7 0,-9 C -3,-7 -2.5,-2 0,0 Z" fill="#e8c987" stroke="#b8893a" stroke-width="0.55" opacity="0.85"/>
  </g>
  <g transform="translate(700,200) rotate(-15)">
    <path d="M 0,0 C 2.5,-2 3,-7 0,-9 C -3,-7 -2.5,-2 0,0 Z" fill="#e8c987" stroke="#b8893a" stroke-width="0.55" opacity="0.8"/>
  </g>

  <!-- ============================================================ -->
  <!-- GRAFT (3D Blender content) — Stage 2 addition -->
  <!-- ============================================================ -->
  <g stroke="#5a3f15" fill="none" stroke-linecap="round">
    <path d="M 350,201 Q 380,160 405,120 Q 425,90 435,75" stroke-width="7"/>
    <path d="M 410,118 Q 430,108 450,107" stroke-width="4"/>
  </g>
  <g stroke="#1a2845" stroke-width="2" stroke-linecap="round">
    <line x1="343" y1="208" x2="361" y2="195"/>
    <line x1="346" y1="213" x2="364" y2="200"/>
    <line x1="349" y1="218" x2="367" y2="205"/>
  </g>
  <g transform="translate(435,75)" stroke="#1a2845" stroke-width="1.2">
    <polygon points="-11,3 0,-3 11,3 0,9" fill="#a8895a"/>
    <polygon points="-11,3 -11,12 0,18 0,9" fill="#5a3f15"/>
    <polygon points="0,9 0,18 11,12 11,3" fill="#7a5a2a"/>
  </g>
  <line x1="446" y1="80" x2="478" y2="73" stroke="#5a3f15" stroke-width="1" opacity="0.55"/>
  <rect x="478" y="55" width="156" height="36" rx="5" fill="#ffffff" stroke="#5a3f15" stroke-width="1.5"/>
  <text x="556" y="71" text-anchor="middle" font-size="11" font-weight="600" fill="#1a2845">3D content · Blender</text>
  <text x="556" y="84" text-anchor="middle" font-size="9.5" fill="#666" font-style="italic">proxies · representational models</text>

  <!-- LEGEND -->
  <g font-size="11">
    <rect x="60" y="635" width="14" height="14" fill="#1a2845"/>
    <text x="80" y="646" font-weight="600" fill="#1a2845">Trunk</text>
    <text x="80" y="661" fill="#666">EM formalism</text>

    <rect x="220" y="640" width="14" height="6" rx="3" fill="#b8893a"/>
    <text x="240" y="646" font-weight="600" fill="#1a2845">Branches</text>
    <text x="240" y="661" fill="#666">node types</text>

    <g transform="translate(377,643)">
      <path d="M -8,0 C -7.5,-2 -4.8,-4 0,-4 C 4.8,-4 7.5,-2 8,0 C 7.5,2 4.8,4 0,4 C -4.8,4 -7.5,2 -8,0 Z" fill="#e8c987" stroke="#b8893a" stroke-width="0.7"/>
      <line x1="-6" y1="0" x2="6" y2="0" stroke="#b8893a" stroke-width="0.4" opacity="0.5"/>
    </g>
    <text x="390" y="646" font-weight="600" fill="#1a2845">Leaves</text>
    <text x="390" y="661" fill="#666">linked containers — fall and regrow</text>

    <g transform="translate(620,640)" stroke="#1a2845" stroke-width="0.9">
      <polygon points="-7,2 0,-2 7,2 0,6" fill="#a8895a"/>
      <polygon points="-7,2 -7,8 0,12 0,6" fill="#5a3f15"/>
      <polygon points="0,6 0,12 7,8 7,2" fill="#7a5a2a"/>
    </g>
    <text x="640" y="646" font-weight="600" fill="#1a2845">Graft</text>
    <text x="640" y="661" fill="#666">externally sourced — bakeable into trunk</text>
  </g>

  <text x="450" y="688" text-anchor="middle" font-size="9" fill="#a89878">Extended Matrix · extendedmatrix.org</text>
</svg>
